<svg width="388" height="399" viewBox="0 0 388 399" fill="none" xmlns="http://www.w3.org/2000/svg">
<path d="M195.432 81.7969C162.51 48.9219 164.599 0 158.734 0C152.865 0 154.937 48.9219 122.031 81.7969C89.1302 114.672 52.4427 111.333 52.4427 118.448C52.4427 125.568 89.1146 122.224 122.031 155.089C154.937 187.964 152.865 236.896 158.734 236.896C164.599 236.896 162.526 187.974 195.432 155.089C228.333 122.224 264.995 125.568 264.995 118.448C264.995 111.333 228.333 114.672 195.432 81.7969Z" fill="white"/>
<mask id="mask0_25_47" style="mask-type:luminance" maskUnits="userSpaceOnUse" x="0" y="244" width="138" height="155">
<path d="M0 244.719H137.083V398.052H0V244.719Z" fill="white"/>
</mask>
<g mask="url(#mask0_25_47)">
<path d="M91.4896 298.167C70.4375 277.135 71.7656 245.812 68 245.812C64.2552 245.812 65.599 277.125 44.5313 298.167C23.4687 319.219 0 317.068 0 321.625C0 326.182 23.4688 324.047 44.5469 345.089C65.599 366.125 64.2708 397.438 68.0104 397.438C71.7813 397.438 70.4375 366.125 91.5052 345.073C112.583 324.047 136.047 326.182 136.047 321.615C136.036 317.068 112.583 319.219 91.4896 298.167Z" fill="white"/>
</g>
<mask id="mask1_25_47" style="mask-type:luminance" maskUnits="userSpaceOnUse" x="209" y="174" width="179" height="201">
<path d="M209.083 174.052H388V374.052H209.083V174.052Z" fill="white"/>
</mask>
<g mask="url(#mask1_25_47)">
<path d="M329.651 243.021C302.005 215.411 303.76 174.328 298.823 174.328C293.885 174.328 295.641 215.422 267.995 243.021C240.349 270.62 209.557 267.833 209.557 273.807C209.557 279.781 240.359 276.974 267.995 304.599C295.641 332.208 293.885 373.292 298.823 373.292C303.76 373.292 302.005 332.193 329.651 304.599C357.297 276.974 388.089 279.781 388.089 273.807C388.089 267.833 357.281 270.63 329.651 243.021Z" fill="white"/>
</g>
</svg>
